# xmcd
#
# Track frame offsets: 
#        150
#        20233
#        42002
#        64744
#        85652
#        112190
#        139308
#        157251
#        172737
#        192516
#        195192
#
# Disc length: 2950 seconds
#
# Revision: 0
# Processed by: cddbd v1.5.2PL0 Copyright (c) Steve Scherf et al.
# Submitted via: ExactAudioCopy v0.99pb4
#
DISCID=950b840b
DTITLE=Personal Funk Device - One On Board
DYEAR=1900
DGENRE=Funk
TTITLE0=Evening News
TTITLE1=In Your Eyes
TTITLE2=Billy's Mad
TTITLE3=Last of the Red Hot Lovers
TTITLE4=So Fagen
TTITLE5=Nothing and Everything
TTITLE6=Holdin Out
TTITLE7=Monk Tune Funk Tune
TTITLE8=Girl Named Dave
TTITLE9=One On Board
TTITLE10=Funkin With the Funk Device
EXTD=
EXTT0=
EXTT1=
EXTT2=
EXTT3=
EXTT4=
EXTT5=
EXTT6=
EXTT7=
EXTT8=
EXTT9=
EXTT10=
PLAYORDER=
